<svg width="400" height="500" viewBox="0 0 400 500" fill="none" xmlns="http://www.w3.org/2000/svg">
<path d="M192 153.72C192 143.768 190.488 134.164 187.672 125.132C175.504 86.0762 139.06 57.7202 96 57.7202C76.768 57.7202 58.864 63.3802 43.844 73.1202C17.456 90.2242 0 119.932 0 153.72C0 204.624 39.616 246.268 89.7 249.512C79.436 286.94 57.608 319.328 28.48 342.276C119.472 338.084 192 260.296 192 164.948C192 162.82 191.952 160.7 191.884 158.584C191.96 156.98 192 155.356 192 153.72Z" fill="url(#paint0_linear)"/>
<path d="M400 153.72C400 143.768 398.484 134.164 395.672 125.132C383.508 86.0762 347.064 57.7202 304 57.7202C284.764 57.7202 266.868 63.3802 251.844 73.1202C225.46 90.2242 208 119.932 208 153.72C208 204.624 247.616 246.268 297.704 249.512C287.44 286.94 265.612 319.328 236.484 342.276C327.476 338.084 400 260.296 400 164.948C400 162.82 399.952 160.7 399.884 158.584C399.96 156.98 400 155.356 400 153.72Z" fill="url(#paint1_linear)"/>
<defs>
<linearGradient id="paint0_linear" x1="96" y1="57.7202" x2="96" y2="342.276" gradientUnits="userSpaceOnUse">
<stop stop-color="#D9A401" stop-opacity="0.75"/>
<stop offset="1" stop-color="#D9A401" stop-opacity="0"/>
</linearGradient>
<linearGradient id="paint1_linear" x1="304" y1="57.7202" x2="304" y2="342.276" gradientUnits="userSpaceOnUse">
<stop stop-color="#D9A401" stop-opacity="0.75"/>
<stop offset="1" stop-color="#D9A401" stop-opacity="0"/>
</linearGradient>
</defs>
</svg>
