<svg width="28" height="28" viewBox="0 0 28 28" fill="none" xmlns="http://www.w3.org/2000/svg">
<path d="M9.22289 12.6498C9.52545 12.9524 9.52545 13.447 9.22289 13.7496C8.92034 14.0521 8.42567 14.0521 8.12311 13.7496L1.52367 7.14936C1.22111 6.8468 1.22111 6.35214 1.52367 6.04958C1.82623 5.74703 2.32089 5.74703 2.62345 6.04958L9.22289 12.6498ZM14.7233 7.15014C15.0259 7.45269 15.0259 7.94736 14.7233 8.24992C14.4208 8.55247 13.9261 8.55247 13.6236 8.24992L7.02256 1.64969C6.72 1.34714 6.72 0.85247 7.02256 0.549915C7.32511 0.247359 7.81978 0.247359 8.12234 0.549915L14.7233 7.15014Z" fill="white"/>
<path d="M26.4444 27.9999C26.4444 24.1375 24.4533 21.3258 22.8962 19.7166C23.2451 19.1246 23.3877 18.4336 23.3019 17.7519C23.216 17.0701 22.9065 16.4361 22.4218 15.9491L21.567 15.0943C21.7088 14.5692 21.71 14.016 21.5705 13.4903C21.431 12.9645 21.1556 12.4847 20.7721 12.0991L16.9229 8.24905C17.203 7.95491 17.357 7.56291 17.3521 7.15674C17.3471 6.75058 17.1836 6.36245 16.8964 6.07522C16.6092 5.788 16.221 5.62445 15.8149 5.6195C15.4087 5.61455 15.0167 5.76858 14.7225 6.04872L12.5245 8.24672L12.5222 8.24827L9.22288 11.5484L7.02332 13.7479C6.87475 13.8914 6.75625 14.0631 6.67472 14.2529C6.5932 14.4427 6.55028 14.6468 6.54849 14.8533C6.5467 15.0599 6.58605 15.2647 6.66427 15.4559C6.74248 15.647 6.85799 15.8207 7.00404 15.9668C7.1501 16.1128 7.32378 16.2283 7.51495 16.3066C7.70612 16.3848 7.91096 16.4241 8.1175 16.4223C8.32405 16.4205 8.52817 16.3776 8.71795 16.2961C8.90774 16.2146 9.07938 16.0961 9.22288 15.9475L13.0729 19.7975C13.8849 20.6095 15.0321 20.8654 16.0673 20.5916L16.9237 21.4479C17.4119 21.9344 18.0483 22.2445 18.7323 22.3293C19.4163 22.4141 20.1091 22.2687 20.7013 21.9162C21.8548 23.1202 23.3333 25.2031 23.3333 27.9999H26.4444Z" fill="white"/>
</svg>
