<svg width="28" height="28" viewBox="0 0 28 28" fill="none" xmlns="http://www.w3.org/2000/svg">
<path d="M15.1667 7V21H17.5V20.195C17.9317 20.685 18.55 21 19.25 21H19.8333C21.7583 21 23.3333 19.425 23.3333 17.5V14C23.3333 12.0867 21.7583 10.5 19.8333 10.5H19.25C18.55 10.5 17.9317 10.815 17.5 11.3167V7H15.1667ZM5.83334 10.5V12.8333H9.33334C9.99834 12.8333 10.5 13.335 10.5 14H8.16667C6.25334 14 4.66667 15.5867 4.66667 17.5C4.66667 19.425 6.25334 21 8.16667 21H12.8333V14C12.8333 12.0867 11.2583 10.5 9.33334 10.5H5.83334ZM18.6667 12.8333H19.8333C20.4983 12.8333 21 13.335 21 14V17.5C21 18.165 20.4983 18.6667 19.8333 18.6667H18.6667C18.0017 18.6667 17.5 18.165 17.5 17.5V14C17.5 13.335 18.0017 12.8333 18.6667 12.8333ZM8.16667 16.3333H10.5V18.6667H8.16667C7.50167 18.6667 7 18.165 7 17.5C7 16.835 7.50167 16.3333 8.16667 16.3333Z" fill="white"/>
</svg>
