<svg width="28" height="28" viewBox="0 0 28 28" fill="none" xmlns="http://www.w3.org/2000/svg">
<path d="M19.0867 16.3333C19.18 15.5633 19.25 14.7933 19.25 13.9999C19.25 13.2066 19.18 12.4366 19.0867 11.6666H23.03C23.2167 12.4133 23.3333 13.1949 23.3333 13.9999C23.3333 14.8049 23.2167 15.5866 23.03 16.3333H19.0867ZM17.0217 22.8199C17.7217 21.5249 18.2583 20.1249 18.6317 18.6666H22.0733C20.943 20.6129 19.1498 22.0872 17.0217 22.8199ZM16.73 16.3333H11.27C11.1533 15.5633 11.0833 14.7933 11.0833 13.9999C11.0833 13.2066 11.1533 12.4249 11.27 11.6666H16.73C16.835 12.4249 16.9167 13.2066 16.9167 13.9999C16.9167 14.7933 16.835 15.5633 16.73 16.3333ZM14 23.2866C13.0317 21.8866 12.25 20.3349 11.7717 18.6666H16.2283C15.75 20.3349 14.9683 21.8866 14 23.2866ZM9.33333 9.33325H5.92667C7.04533 7.38167 8.83726 5.90499 10.9667 5.17992C10.2667 6.47492 9.74167 7.87492 9.33333 9.33325ZM5.92667 18.6666H9.33333C9.74167 20.1249 10.2667 21.5249 10.9667 22.8199C8.84173 22.0869 7.05232 20.6123 5.92667 18.6666ZM4.97 16.3333C4.78333 15.5866 4.66667 14.8049 4.66667 13.9999C4.66667 13.1949 4.78333 12.4133 4.97 11.6666H8.91333C8.82 12.4366 8.75 13.2066 8.75 13.9999C8.75 14.7933 8.82 15.5633 8.91333 16.3333H4.97ZM14 4.70159C14.9683 6.10159 15.75 7.66492 16.2283 9.33325H11.7717C12.25 7.66492 13.0317 6.10159 14 4.70159ZM22.0733 9.33325H18.6317C18.2665 7.88829 17.7258 6.49346 17.0217 5.17992C19.1683 5.91492 20.9533 7.39659 22.0733 9.33325ZM14 2.33325C7.54833 2.33325 2.33333 7.58325 2.33333 13.9999C2.33333 17.0941 3.5625 20.0616 5.75042 22.2495C6.83377 23.3328 8.11989 24.1922 9.53536 24.7785C10.9508 25.3648 12.4679 25.6666 14 25.6666C17.0942 25.6666 20.0617 24.4374 22.2496 22.2495C24.4375 20.0616 25.6667 17.0941 25.6667 13.9999C25.6667 12.4678 25.3649 10.9507 24.7786 9.53528C24.1923 8.11981 23.3329 6.83369 22.2496 5.75034C21.1662 4.66699 19.8801 3.80763 18.4646 3.22132C17.0492 2.63502 15.5321 2.33325 14 2.33325Z" fill="white"/>
</svg>
