<svg width="28" height="28" viewBox="0 0 28 28" fill="none" xmlns="http://www.w3.org/2000/svg">
<path fill-rule="evenodd" clip-rule="evenodd" d="M12.9402 4.24213C13.3003 4.33236 13.6099 4.56197 13.8008 4.88044C13.9917 5.19891 14.0482 5.58016 13.958 5.94033L13.342 8.40013H17.458L18.242 5.25993C18.2856 5.08046 18.3643 4.91139 18.4735 4.76246C18.5827 4.61353 18.7203 4.48768 18.8784 4.39217C19.0365 4.29666 19.2119 4.23337 19.3946 4.20595C19.5772 4.17852 19.7635 4.18751 19.9426 4.2324C20.1218 4.27728 20.2903 4.35716 20.4384 4.46745C20.5866 4.57774 20.7114 4.71625 20.8058 4.87501C20.9002 5.03377 20.9622 5.20963 20.9883 5.39246C21.0145 5.5753 21.0041 5.7615 20.958 5.94033L20.342 8.40013H23.8C24.1713 8.40013 24.5274 8.54763 24.7899 8.81018C25.0525 9.07273 25.2 9.42882 25.2 9.80013C25.2 10.1714 25.0525 10.5275 24.7899 10.7901C24.5274 11.0526 24.1713 11.2001 23.8 11.2001H19.642L18.242 16.8001H21C21.3713 16.8001 21.7274 16.9476 21.9899 17.2102C22.2525 17.4727 22.4 17.8288 22.4 18.2001C22.4 18.5714 22.2525 18.9275 21.9899 19.1901C21.7274 19.4526 21.3713 19.6001 21 19.6001H17.542L16.758 22.7389C16.716 22.92 16.6384 23.0909 16.5297 23.2416C16.4209 23.3924 16.2833 23.52 16.1247 23.617C15.9662 23.714 15.7899 23.7784 15.6062 23.8066C15.4224 23.8347 15.2349 23.826 15.0546 23.7809C14.8743 23.7358 14.7048 23.6553 14.5559 23.544C14.407 23.4327 14.2818 23.2929 14.1875 23.1327C14.0933 22.9725 14.0319 22.7951 14.0069 22.6109C13.9819 22.4268 13.9938 22.2394 14.042 22.0599L14.658 19.6001H10.542L9.75799 22.7389C9.716 22.92 9.63839 23.0909 9.52966 23.2416C9.42094 23.3924 9.28328 23.52 9.12472 23.617C8.96617 23.714 8.78988 23.7784 8.60616 23.8066C8.42243 23.8347 8.23494 23.826 8.05462 23.7809C7.8743 23.7358 7.70476 23.6553 7.55589 23.544C7.40702 23.4327 7.28181 23.2929 7.18755 23.1327C7.09329 22.9725 7.03187 22.7951 7.00688 22.6109C6.98189 22.4268 6.99382 22.2394 7.04199 22.0599L7.65799 19.6001H4.19999C3.82868 19.6001 3.47259 19.4526 3.21004 19.1901C2.94749 18.9275 2.79999 18.5714 2.79999 18.2001C2.79999 17.8288 2.94749 17.4727 3.21004 17.2102C3.47259 16.9476 3.82868 16.8001 4.19999 16.8001H8.35799L9.75799 11.2001H6.99999C6.62868 11.2001 6.27259 11.0526 6.01004 10.7901C5.74749 10.5275 5.59999 10.1714 5.59999 9.80013C5.59999 9.42882 5.74749 9.07273 6.01004 8.81018C6.27259 8.54763 6.62868 8.40013 6.99999 8.40013H10.458L11.242 5.25993C11.3322 4.89977 11.5618 4.5902 11.8803 4.39933C12.1988 4.20846 12.58 4.15191 12.9402 4.24213ZM12.642 11.2001L11.242 16.8001H15.3552L16.7552 11.2001H12.6434H12.642Z" fill="white"/>
</svg>
