<svg width="28" height="28" viewBox="0 0 28 28" fill="none" xmlns="http://www.w3.org/2000/svg">
<path d="M15.3177 2.62854C12.3725 0.420039 8.15325 2.35729 7.90825 6.03054L7.78575 7.87504H6.5625C6.2144 7.87504 5.88056 8.01332 5.63442 8.25946C5.38828 8.5056 5.25 8.83944 5.25 9.18754C5.25 9.53563 5.38828 9.86947 5.63442 10.1156C5.88056 10.3618 6.2144 10.5 6.5625 10.5H7.609L6.874 21.5145C6.85124 21.8529 6.75012 22.1814 6.57862 22.4739C6.40712 22.7665 6.16995 23.0152 5.88582 23.2004C5.6017 23.3856 5.27841 23.5022 4.94149 23.5409C4.60457 23.5797 4.26326 23.5396 3.9445 23.4238L3.51225 23.2663C3.35023 23.2073 3.17819 23.1809 3.00594 23.1884C2.8337 23.196 2.66463 23.2374 2.50838 23.3102C2.35214 23.3831 2.21178 23.4861 2.09531 23.6132C1.97885 23.7403 1.88857 23.8891 1.82962 24.0512C1.77068 24.2132 1.74422 24.3852 1.75176 24.5575C1.7593 24.7297 1.8007 24.8988 1.87358 25.055C1.94646 25.2113 2.0494 25.3516 2.17653 25.4681C2.30366 25.5846 2.45248 25.6748 2.6145 25.7338L3.0485 25.8913C3.75002 26.1462 4.50122 26.2344 5.24271 26.1489C5.98419 26.0635 6.69564 25.8068 7.32083 25.3991C7.94601 24.9913 8.46778 24.4438 8.84491 23.7996C9.22203 23.1555 9.44416 22.4325 9.49375 21.6878L10.241 10.5H12.6875C13.0356 10.5 13.3694 10.3618 13.6156 10.1156C13.8617 9.86947 14 9.53563 14 9.18754C14 8.83944 13.8617 8.5056 13.6156 8.25946C13.3694 8.01332 13.0356 7.87504 12.6875 7.87504H10.416L10.5262 6.20379C10.5504 5.84213 10.6717 5.49371 10.8775 5.19532C11.0833 4.89693 11.3658 4.65965 11.6953 4.50854C12.0247 4.35743 12.3889 4.29811 12.7493 4.33683C13.1097 4.37555 13.4529 4.51089 13.7427 4.72854L14.0875 4.98754C14.2254 5.09095 14.3823 5.1662 14.5493 5.20898C14.7162 5.25175 14.89 5.26122 15.0606 5.23685C15.2312 5.21247 15.3954 5.15473 15.5437 5.06691C15.692 4.9791 15.8216 4.86293 15.925 4.72504C16.0284 4.58715 16.1037 4.43024 16.1464 4.26328C16.1892 4.09631 16.1987 3.92255 16.1743 3.75192C16.1499 3.5813 16.0922 3.41714 16.0044 3.26883C15.9166 3.12052 15.8004 2.99095 15.6625 2.88754L15.3177 2.62854ZM16.863 13.4155C16.6553 13.0779 16.3738 12.7917 16.0397 12.5784C15.7056 12.3651 15.3275 12.2302 14.9338 12.1839C14.5401 12.1376 14.1411 12.1811 13.7666 12.311C13.3921 12.441 13.0519 12.6541 12.7715 12.9343L12.1975 13.51C11.9657 13.7588 11.8394 14.0879 11.8454 14.428C11.8514 14.768 11.9892 15.0924 12.2297 15.3329C12.4701 15.5733 12.7946 15.7111 13.1346 15.7171C13.4746 15.7231 13.8037 15.5969 14.0525 15.365L14.6282 14.791L16.7142 18.1808L12.635 22.2583C12.5096 22.3793 12.4095 22.5241 12.3407 22.6842C12.2718 22.8443 12.2355 23.0165 12.2339 23.1908C12.2323 23.365 12.2655 23.5379 12.3314 23.6992C12.3973 23.8605 12.4947 24.0071 12.6179 24.1304C12.741 24.2537 12.8875 24.3512 13.0488 24.4173C13.2101 24.4834 13.3829 24.5167 13.5572 24.5152C13.7314 24.5138 13.9037 24.4777 14.0638 24.409C14.224 24.3403 14.3689 24.2403 14.49 24.115L18.1283 20.4785L19.887 23.3345C20.0947 23.6722 20.3762 23.9584 20.7103 24.1717C21.0444 24.385 21.4225 24.5199 21.8162 24.5662C22.2099 24.6125 22.6089 24.569 22.9834 24.4391C23.3579 24.3091 23.6981 24.096 23.9785 23.8158L24.5525 23.24C24.6815 23.1199 24.7849 22.975 24.8566 22.814C24.9284 22.653 24.9669 22.4792 24.97 22.303C24.9731 22.1267 24.9407 21.9517 24.8747 21.7882C24.8087 21.6248 24.7104 21.4764 24.5858 21.3517C24.4612 21.2271 24.3127 21.1288 24.1493 21.0628C23.9859 20.9968 23.8108 20.9644 23.6346 20.9675C23.4584 20.9706 23.2846 21.0092 23.1236 21.0809C22.9626 21.1527 22.8177 21.2561 22.6975 21.385L22.1217 21.959L20.0357 18.5693L24.115 14.4918C24.3542 14.2444 24.4867 13.9129 24.4838 13.5687C24.481 13.2246 24.3431 12.8954 24.0999 12.6519C23.8567 12.4084 23.5275 12.2702 23.1834 12.2671C22.8393 12.2639 22.5077 12.3961 22.26 12.635L18.62 16.2715L16.863 13.4155Z" fill="white"/>
</svg>
