<svg width="500" height="625" viewBox="0 0 500 625" fill="none" xmlns="http://www.w3.org/2000/svg">
<path d="M473.71 92.1504C473.52 91.9254 473.315 91.7154 473.09 91.5254C472.14 90.7054 470.91 90.2104 469.56 90.1904C469.555 90.1904 469.55 90.1904 469.54 90.1904C469.53 90.1904 469.525 90.1904 469.52 90.1904C469.515 90.1904 469.505 90.1904 469.5 90.1904H215.85C214.32 90.1904 212.86 90.8304 211.82 91.9454L34.49 282.84C34.07 283.29 33.725 283.805 33.475 284.375C26.56 299.18 23.735 317.175 25.52 335.065C26.37 343.57 28.205 351.62 30.975 359C33.85 366.66 37.595 373.215 42.105 378.475C43.15 379.695 44.675 380.395 46.28 380.395H58.5C59.685 390.2 60.025 400 57.08 409.805C65.235 404.62 72.47 399.44 79.15 394.255C85.665 399.44 91.625 404.62 96.665 409.805C99.61 400 99.2701 390.2 98.085 380.395H359.23C361.26 380.395 363.125 379.275 364.08 377.485L474.355 170.84C474.78 170.045 475 169.155 475 168.255V95.6904C475 94.3404 474.515 93.1104 473.71 92.1504ZM36.465 333.975C36.43 333.595 36.395 333.22 36.36 332.84L56.585 332.52C55.215 337.76 54.75 342.995 54.8 348.235L38.95 347.835C37.785 343.44 36.945 338.785 36.465 333.975ZM48.91 369.4C45.31 364.645 42.33 358.645 40.14 351.88L54.895 351.505C55.185 357.47 56.05 363.435 56.945 369.4H48.91ZM358.8 292.115C358.625 293.955 358.475 295.795 358.335 297.635C358.06 301.315 357.855 304.995 357.69 308.675C357.595 310.86 357.515 313.045 357.45 315.235C352.305 315.245 347.165 315.245 342.015 315.27C336.28 315.295 330.54 315.32 324.8 315.365L316.195 315.43L307.59 315.52C301.855 315.57 296.115 315.66 290.375 315.73C278.9 315.9 267.42 316.105 255.945 316.375C244.47 316.665 232.99 316.955 221.515 317.42C232.99 317.89 244.47 318.175 255.945 318.465C267.42 318.74 278.895 318.94 290.375 319.115C296.11 319.185 301.85 319.275 307.59 319.325L316.195 319.415L324.8 319.48C330.54 319.53 336.275 319.55 342.015 319.575C347.12 319.605 352.23 319.605 357.335 319.615C357.255 323.325 357.215 327.04 357.215 330.755C357.215 335.105 357.265 339.455 357.375 343.805C352.255 343.815 347.135 343.815 342.015 343.845C336.28 343.87 330.54 343.89 324.8 343.94L316.195 344.005L307.59 344.095C301.855 344.145 296.115 344.235 290.375 344.305C278.9 344.48 267.42 344.68 255.945 344.955C244.47 345.245 232.99 345.535 221.515 346C232.99 346.465 244.47 346.755 255.945 347.045C267.42 347.32 278.895 347.52 290.375 347.695C296.11 347.765 301.85 347.855 307.59 347.905L316.195 347.995L324.8 348.06C330.54 348.11 336.275 348.135 342.015 348.155C347.18 348.185 352.34 348.185 357.505 348.19C357.56 349.74 357.615 351.29 357.685 352.835C357.85 356.515 358.06 360.195 358.335 363.87C358.36 364.175 358.385 364.475 358.41 364.78L355.94 369.415H96.535C95.59 363.115 94.675 356.81 94.44 350.51L119.035 349.885L94.405 349.26C94.275 343.475 94.75 337.695 96.34 331.91L169.01 330.76L36.085 328.65C35.865 323.585 36.05 318.555 36.63 313.65L119.03 311.62L37.2 309.605C38.21 303.455 39.855 297.55 42.095 292.09H358.8C358.8 292.095 358.8 292.105 358.8 292.115ZM355.925 281.095H51.12L218.245 101.185H459.97L355.925 281.095ZM464.005 142.325L433.925 198.45L464.005 149.795V166.88L360.725 360.41C360.89 357.88 361.02 355.35 361.14 352.82C361.23 350.755 361.305 348.69 361.37 346.625C365.37 339.16 369.325 331.675 373.255 324.175C377.24 316.535 381.21 308.89 385.115 301.21C389.025 293.53 392.9 285.835 396.71 278.1C400.49 270.355 404.29 262.615 407.9 254.775C403.395 262.14 399.085 269.6 394.755 277.055C390.45 284.525 386.215 292.025 382.015 299.55C377.81 307.07 373.665 314.625 369.54 322.19C366.87 327.1 364.22 332.02 361.575 336.94C361.6 334.875 361.61 332.81 361.61 330.74C361.61 326.46 361.555 322.185 361.45 317.905C365.42 310.49 369.35 303.05 373.255 295.6C377.24 287.965 381.21 280.315 385.115 272.635C389.025 264.96 392.9 257.26 396.71 249.525C400.49 241.78 404.29 234.04 407.9 226.205C403.395 233.565 399.085 241.03 394.755 248.485C390.45 255.955 386.215 263.455 382.015 270.98C377.81 278.5 373.665 286.055 369.54 293.62C366.73 298.79 363.935 303.965 361.155 309.155C361.15 308.99 361.14 308.83 361.135 308.665C360.97 304.985 360.76 301.305 360.485 297.625C360.345 295.785 360.195 293.945 360.02 292.105C360.015 292.07 360.015 292.035 360.01 292.005C361.61 291.735 363.025 290.77 363.855 289.34L464.005 116.17V142.325Z" fill="url(#paint0_linear)"/>
<defs>
<linearGradient id="paint0_linear" x1="249.999" y1="90.1904" x2="249.999" y2="409.805" gradientUnits="userSpaceOnUse">
<stop stop-color="#D9A401" stop-opacity="0.1"/>
<stop offset="1" stop-color="#886700"/>
</linearGradient>
</defs>
</svg>
