<svg width="28" height="28" viewBox="0 0 28 28" fill="none" xmlns="http://www.w3.org/2000/svg">
<path fill-rule="evenodd" clip-rule="evenodd" d="M14 1.16663C6.91249 1.16663 1.16666 6.91246 1.16666 14C1.16666 21.0875 6.91249 26.8333 14 26.8333C21.0875 26.8333 26.8333 21.0875 26.8333 14C26.8333 6.91246 21.0875 1.16663 14 1.16663ZM11.6667 10.2666C11.6667 9.92246 11.844 9.60629 12.1287 9.44413C12.267 9.36454 12.4253 9.32661 12.5847 9.33489C12.7441 9.34317 12.8977 9.39731 13.027 9.49079L18.277 13.2241C18.3989 13.3132 18.4978 13.4301 18.5655 13.565C18.6333 13.6999 18.668 13.849 18.6667 14C18.6681 14.1511 18.6336 14.3005 18.5658 14.4356C18.498 14.5707 18.399 14.6877 18.277 14.777L13.027 18.5103C12.8977 18.6038 12.7441 18.6579 12.5847 18.6662C12.4253 18.6745 12.267 18.6365 12.1287 18.557C11.9861 18.4723 11.8683 18.3517 11.7872 18.2071C11.7061 18.0625 11.6645 17.8991 11.6667 17.7333V10.2666Z" fill="white"/>
</svg>
